<svg xmlns="http://www.w3.org/2000/svg" xmlns:xlink="http://www.w3.org/1999/xlink" width="500" zoomAndPan="magnify" viewBox="0 0 375 374.999991" height="500" preserveAspectRatio="xMidYMid meet" version="1.0"><defs><g/></defs><g fill="#ffffff" fill-opacity="1"><g transform="translate(28.308595, 202.035632)"><g><path d="M 27.210938 -40.1875 L 19.871094 -47.402344 L 1.582031 -47.402344 L 1.582031 -41.832031 L 7.40625 -41.832031 L 7.40625 -41.386719 L 5 -39.933594 L 5 0 L 10.757812 0 L 10.757812 -15.566406 L 19.933594 -15.566406 L 27.210938 -23.226562 Z M 17.464844 -21.328125 L 10.757812 -21.328125 L 10.757812 -41.640625 L 17.53125 -41.640625 L 21.390625 -37.78125 L 21.390625 -25.503906 Z M 17.464844 -21.328125 "/></g></g></g><g fill="#ffffff" fill-opacity="1"><g transform="translate(59.316371, 202.035632)"><g><path d="M 1.707031 -47.273438 L 1.707031 -41.515625 L 7.40625 -41.515625 L 7.40625 -41.070312 L 5.0625 -39.679688 L 5.0625 0 L 10.820312 0 L 10.820312 -20.882812 L 21.515625 -20.882812 L 21.515625 0 L 27.277344 0 L 27.277344 -47.273438 L 21.515625 -47.273438 L 21.515625 -26.390625 L 10.820312 -26.390625 L 10.820312 -47.273438 Z M 1.707031 -47.273438 "/></g></g></g><g fill="#ffffff" fill-opacity="1"><g transform="translate(91.020234, 202.035632)"><g><path d="M 5.253906 -47.402344 L 5.253906 -41.640625 L 10.1875 -41.640625 L 10.1875 -41.199219 L 7.785156 -39.742188 L 1.960938 0 L 7.785156 0 L 9.621094 -12.339844 L 19.492188 -12.339844 L 21.328125 0 L 27.148438 0 L 20.125 -47.402344 Z M 15.125 -41.640625 L 18.667969 -18.097656 L 10.441406 -18.097656 L 13.921875 -41.640625 Z M 15.125 -41.640625 "/></g></g></g><g fill="#ffffff" fill-opacity="1"><g transform="translate(120.129573, 202.035632)"><g><path d="M 1.644531 -47.273438 L 1.644531 -41.578125 L 7.46875 -41.578125 L 7.46875 -41.136719 L 5.0625 -39.679688 L 5.0625 0 L 10.695312 0 L 10.695312 -22.78125 L 9.9375 -38.792969 L 10.125 -38.792969 L 14.429688 -23.289062 L 21.832031 0 L 27.972656 0 L 27.972656 -47.273438 L 22.339844 -47.273438 L 22.339844 -30.628906 L 23.605469 -10.503906 L 23.414062 -10.503906 L 18.226562 -30.3125 L 12.847656 -47.273438 Z M 1.644531 -47.273438 "/></g></g></g><g fill="#ffffff" fill-opacity="1"><g transform="translate(152.529534, 202.035632)"><g><path d="M 1.773438 0 L 17.78125 0 L 17.78125 -5.253906 L 12.65625 -5.253906 L 12.65625 -42.210938 L 17.085938 -42.210938 L 17.085938 -47.464844 L 2.277344 -47.464844 L 2.277344 -42.210938 L 9.304688 -42.210938 L 9.304688 -41.769531 L 6.898438 -40.3125 L 6.898438 -5.253906 L 1.773438 -5.253906 Z M 1.773438 0 "/></g></g></g><g fill="#ffffff" fill-opacity="1"><g transform="translate(172.020137, 202.035632)"><g/></g></g><g fill="#ffffff" fill-opacity="1"><g transform="translate(183.53731, 202.035632)"><g><path d="M 31.136719 -41.769531 L 31.136719 -0.0625 L 36.769531 -0.0625 L 36.769531 -47.402344 L 25.3125 -47.402344 L 22.59375 -28.605469 L 21.011719 -12.085938 L 20.820312 -12.085938 L 19.175781 -28.859375 L 16.453125 -47.402344 L 1.582031 -47.402344 L 1.582031 -41.769531 L 7.277344 -41.769531 L 7.277344 -41.324219 L 5 -39.933594 L 5 -0.0625 L 10.632812 -0.0625 L 10.632812 -41.769531 L 11.453125 -41.769531 L 17.339844 -4.367188 L 24.617188 -4.367188 L 30.3125 -41.769531 Z M 31.136719 -41.769531 "/></g></g></g><g fill="#ffffff" fill-opacity="1"><g transform="translate(224.670063, 202.035632)"><g><path d="M 5.253906 -47.402344 L 5.253906 -41.640625 L 10.1875 -41.640625 L 10.1875 -41.199219 L 7.785156 -39.742188 L 1.960938 0 L 7.785156 0 L 9.621094 -12.339844 L 19.492188 -12.339844 L 21.328125 0 L 27.148438 0 L 20.125 -47.402344 Z M 15.125 -41.640625 L 18.667969 -18.097656 L 10.441406 -18.097656 L 13.921875 -41.640625 Z M 15.125 -41.640625 "/></g></g></g><g fill="#ffffff" fill-opacity="1"><g transform="translate(253.77939, 202.035632)"><g><path d="M 27.210938 -40.1875 L 19.871094 -47.402344 L 1.582031 -47.402344 L 1.582031 -41.832031 L 7.40625 -41.832031 L 7.40625 -41.386719 L 5 -39.933594 L 5 0 L 10.757812 0 L 10.757812 -15.566406 L 19.933594 -15.566406 L 27.210938 -23.226562 Z M 17.464844 -21.328125 L 10.757812 -21.328125 L 10.757812 -41.640625 L 17.53125 -41.640625 L 21.390625 -37.78125 L 21.390625 -25.503906 Z M 17.464844 -21.328125 "/></g></g></g><g fill="#ffffff" fill-opacity="1"><g transform="translate(284.787155, 202.035632)"><g><path d="M 22.277344 0.253906 L 29.492188 -47.464844 L 23.667969 -47.464844 L 17.339844 -5.253906 L 16.011719 -5.253906 L 9.808594 -47.464844 L 1.328125 -47.464844 L 1.328125 -41.957031 L 7.214844 -41.957031 L 7.214844 -41.578125 L 5.0625 -40.121094 L 11.011719 0.253906 Z M 22.277344 0.253906 "/></g></g></g><g fill="#ffffff" fill-opacity="1"><g transform="translate(316.111326, 202.035632)"><g><path d="M 9.429688 -9.304688 L 9.429688 -15.695312 L 3.734375 -15.695312 L 3.734375 -7.023438 L 10.695312 0.316406 L 19.746094 0.316406 L 26.707031 -7.023438 L 26.707031 -19.808594 L 9.746094 -31.707031 L 9.746094 -38.289062 L 13.226562 -42.019531 L 17.214844 -42.019531 L 20.757812 -38.289062 L 20.757812 -33.351562 L 26.453125 -33.351562 L 26.453125 -40.628906 L 19.679688 -47.71875 L 10.820312 -47.71875 L 4.050781 -40.628906 L 4.050781 -28.730469 L 21.074219 -16.832031 L 21.074219 -9.304688 L 17.339844 -5.378906 L 13.164062 -5.378906 Z M 9.429688 -9.304688 "/></g></g></g></svg>