<svg xmlns="http://www.w3.org/2000/svg" xmlns:xlink="http://www.w3.org/1999/xlink" width="500" zoomAndPan="magnify" viewBox="0 0 375 374.999991" height="500" preserveAspectRatio="xMidYMid meet" version="1.0"><defs><g/></defs><g fill="#000000" fill-opacity="1"><g transform="translate(30.488283, 123.571281)"><g><path d="M 59.457031 -87.800781 L 43.417969 -103.5625 L 3.457031 -103.5625 L 3.457031 -91.394531 L 16.175781 -91.394531 L 16.175781 -90.429688 L 10.921875 -87.25 L 10.921875 0 L 23.507812 0 L 23.507812 -34.015625 L 43.554688 -34.015625 L 59.457031 -50.746094 Z M 38.164062 -46.597656 L 23.507812 -46.597656 L 23.507812 -90.980469 L 38.300781 -90.980469 L 46.734375 -82.546875 L 46.734375 -55.722656 Z M 38.164062 -46.597656 "/></g></g></g><g fill="#000000" fill-opacity="1"><g transform="translate(98.240323, 123.571281)"><g><path d="M 3.734375 -103.289062 L 3.734375 -90.707031 L 16.175781 -90.707031 L 16.175781 -89.738281 L 11.0625 -86.695312 L 11.0625 0 L 23.644531 0 L 23.644531 -45.628906 L 47.011719 -45.628906 L 47.011719 0 L 59.59375 0 L 59.59375 -103.289062 L 47.011719 -103.289062 L 47.011719 -57.660156 L 23.644531 -57.660156 L 23.644531 -103.289062 Z M 3.734375 -103.289062 "/></g></g></g><g fill="#000000" fill-opacity="1"><g transform="translate(167.513329, 123.571281)"><g><path d="M 11.476562 -103.5625 L 11.476562 -90.980469 L 22.261719 -90.980469 L 22.261719 -90.015625 L 17.007812 -86.832031 L 4.285156 0 L 17.007812 0 L 21.015625 -26.960938 L 42.585938 -26.960938 L 46.597656 0 L 59.316406 0 L 43.96875 -103.5625 Z M 33.046875 -90.980469 L 40.789062 -39.546875 L 22.816406 -39.546875 L 30.417969 -90.980469 Z M 33.046875 -90.980469 "/></g></g></g><g fill="#000000" fill-opacity="1"><g transform="translate(231.117298, 123.571281)"><g><path d="M 3.59375 -103.289062 L 3.59375 -90.84375 L 16.316406 -90.84375 L 16.316406 -89.875 L 11.0625 -86.695312 L 11.0625 0 L 23.367188 0 L 23.367188 -49.777344 L 21.707031 -84.757812 L 22.125 -84.757812 L 31.527344 -50.882812 L 47.703125 0 L 61.117188 0 L 61.117188 -103.289062 L 48.808594 -103.289062 L 48.808594 -66.921875 L 51.574219 -22.953125 L 51.160156 -22.953125 L 39.820312 -66.230469 L 28.070312 -103.289062 Z M 3.59375 -103.289062 "/></g></g></g><g fill="#000000" fill-opacity="1"><g transform="translate(301.91127, 123.571281)"><g><path d="M 3.871094 0 L 38.855469 0 L 38.855469 -11.476562 L 27.652344 -11.476562 L 27.652344 -92.226562 L 37.332031 -92.226562 L 37.332031 -103.703125 L 4.976562 -103.703125 L 4.976562 -92.226562 L 20.324219 -92.226562 L 20.324219 -91.257812 L 15.070312 -88.078125 L 15.070312 -11.476562 L 3.871094 -11.476562 Z M 3.871094 0 "/></g></g></g><g fill="#000000" fill-opacity="1"><g transform="translate(9.265628, 317.071268)"><g><path d="M 68.027344 -91.257812 L 68.027344 -0.136719 L 80.335938 -0.136719 L 80.335938 -103.5625 L 55.308594 -103.5625 L 49.363281 -62.496094 L 45.90625 -26.410156 L 45.492188 -26.410156 L 41.894531 -63.050781 L 35.949219 -103.5625 L 3.457031 -103.5625 L 3.457031 -91.257812 L 15.902344 -91.257812 L 15.902344 -90.289062 L 10.921875 -87.25 L 10.921875 -0.136719 L 23.230469 -0.136719 L 23.230469 -91.257812 L 25.027344 -91.257812 L 37.886719 -9.539062 L 53.785156 -9.539062 L 66.230469 -91.257812 Z M 68.027344 -91.257812 "/></g></g></g><g fill="#000000" fill-opacity="1"><g transform="translate(99.14079, 317.071268)"><g><path d="M 11.476562 -103.5625 L 11.476562 -90.980469 L 22.261719 -90.980469 L 22.261719 -90.015625 L 17.007812 -86.832031 L 4.285156 0 L 17.007812 0 L 21.015625 -26.960938 L 42.585938 -26.960938 L 46.597656 0 L 59.316406 0 L 43.96875 -103.5625 Z M 33.046875 -90.980469 L 40.789062 -39.546875 L 22.816406 -39.546875 L 30.417969 -90.980469 Z M 33.046875 -90.980469 "/></g></g></g><g fill="#000000" fill-opacity="1"><g transform="translate(162.744748, 317.071268)"><g><path d="M 59.457031 -87.800781 L 43.417969 -103.5625 L 3.457031 -103.5625 L 3.457031 -91.394531 L 16.175781 -91.394531 L 16.175781 -90.429688 L 10.921875 -87.25 L 10.921875 0 L 23.507812 0 L 23.507812 -34.015625 L 43.554688 -34.015625 L 59.457031 -50.746094 Z M 38.164062 -46.597656 L 23.507812 -46.597656 L 23.507812 -90.980469 L 38.300781 -90.980469 L 46.734375 -82.546875 L 46.734375 -55.722656 Z M 38.164062 -46.597656 "/></g></g></g><g fill="#000000" fill-opacity="1"><g transform="translate(230.496799, 317.071268)"><g><path d="M 48.671875 0.554688 L 64.433594 -103.703125 L 51.714844 -103.703125 L 37.886719 -11.476562 L 34.980469 -11.476562 L 21.433594 -103.703125 L 2.902344 -103.703125 L 2.902344 -91.671875 L 15.761719 -91.671875 L 15.761719 -90.84375 L 11.0625 -87.664062 L 24.058594 0.554688 Z M 48.671875 0.554688 "/></g></g></g><g fill="#000000" fill-opacity="1"><g transform="translate(298.9402, 317.071268)"><g><path d="M 20.601562 -20.324219 L 20.601562 -34.289062 L 8.15625 -34.289062 L 8.15625 -15.347656 L 23.367188 0.691406 L 43.140625 0.691406 L 58.351562 -15.347656 L 58.351562 -43.277344 L 21.292969 -69.273438 L 21.292969 -83.652344 L 28.898438 -91.8125 L 37.609375 -91.8125 L 45.351562 -83.652344 L 45.351562 -72.867188 L 57.796875 -72.867188 L 57.796875 -88.769531 L 43.003906 -104.253906 L 23.644531 -104.253906 L 8.847656 -88.769531 L 8.847656 -62.773438 L 46.042969 -36.78125 L 46.042969 -20.324219 L 37.886719 -11.753906 L 28.761719 -11.753906 Z M 20.601562 -20.324219 "/></g></g></g></svg>