<svg xmlns="http://www.w3.org/2000/svg" xmlns:xlink="http://www.w3.org/1999/xlink" width="500" zoomAndPan="magnify" viewBox="0 0 375 374.999991" height="500" preserveAspectRatio="xMidYMid meet" version="1.0"><defs><g/></defs><g fill="#f6f4f1" fill-opacity="1"><g transform="translate(10.718753, 203.907702)"><g><path d="M 30.222656 -44.628906 L 22.070312 -52.640625 L 1.757812 -52.640625 L 1.757812 -46.457031 L 8.222656 -46.457031 L 8.222656 -45.964844 L 5.550781 -44.347656 L 5.550781 0 L 11.949219 0 L 11.949219 -17.289062 L 22.140625 -17.289062 L 30.222656 -25.792969 Z M 19.398438 -23.683594 L 11.949219 -23.683594 L 11.949219 -46.246094 L 19.46875 -46.246094 L 23.753906 -41.957031 L 23.753906 -28.324219 Z M 19.398438 -23.683594 "/></g></g></g><g fill="#f6f4f1" fill-opacity="1"><g transform="translate(45.154618, 203.907702)"><g><path d="M 1.898438 -52.5 L 1.898438 -46.105469 L 8.222656 -46.105469 L 8.222656 -45.613281 L 5.621094 -44.066406 L 5.621094 0 L 12.019531 0 L 12.019531 -23.191406 L 23.894531 -23.191406 L 23.894531 0 L 30.292969 0 L 30.292969 -52.5 L 23.894531 -52.5 L 23.894531 -29.308594 L 12.019531 -29.308594 L 12.019531 -52.5 Z M 1.898438 -52.5 "/></g></g></g><g fill="#f6f4f1" fill-opacity="1"><g transform="translate(80.363531, 203.907702)"><g><path d="M 5.832031 -52.640625 L 5.832031 -46.246094 L 11.316406 -46.246094 L 11.316406 -45.753906 L 8.644531 -44.136719 L 2.179688 0 L 8.644531 0 L 10.683594 -13.707031 L 21.648438 -13.707031 L 23.683594 0 L 30.152344 0 L 22.351562 -52.640625 Z M 16.796875 -46.246094 L 20.734375 -20.101562 L 11.597656 -20.101562 L 15.460938 -46.246094 Z M 16.796875 -46.246094 "/></g></g></g><g fill="#f6f4f1" fill-opacity="1"><g transform="translate(112.691075, 203.907702)"><g><path d="M 1.828125 -52.5 L 1.828125 -46.175781 L 8.292969 -46.175781 L 8.292969 -45.683594 L 5.621094 -44.066406 L 5.621094 0 L 11.878906 0 L 11.878906 -25.300781 L 11.035156 -43.082031 L 11.246094 -43.082031 L 16.023438 -25.863281 L 24.246094 0 L 31.066406 0 L 31.066406 -52.5 L 24.808594 -52.5 L 24.808594 -34.015625 L 26.214844 -11.667969 L 26.003906 -11.667969 L 20.242188 -33.664062 L 14.265625 -52.5 Z M 1.828125 -52.5 "/></g></g></g><g fill="#f6f4f1" fill-opacity="1"><g transform="translate(148.673036, 203.907702)"><g><path d="M 1.96875 0 L 19.75 0 L 19.75 -5.832031 L 14.054688 -5.832031 L 14.054688 -46.878906 L 18.976562 -46.878906 L 18.976562 -52.710938 L 2.53125 -52.710938 L 2.53125 -46.878906 L 10.332031 -46.878906 L 10.332031 -46.386719 L 7.660156 -44.769531 L 7.660156 -5.832031 L 1.96875 -5.832031 Z M 1.96875 0 "/></g></g></g><g fill="#f6f4f1" fill-opacity="1"><g transform="translate(170.318436, 203.907702)"><g/></g></g><g fill="#f6f4f1" fill-opacity="1"><g transform="translate(183.108901, 203.907702)"><g><path d="M 34.578125 -46.386719 L 34.578125 -0.0703125 L 40.835938 -0.0703125 L 40.835938 -52.640625 L 28.113281 -52.640625 L 25.089844 -31.769531 L 23.332031 -13.425781 L 23.121094 -13.425781 L 21.296875 -32.046875 L 18.273438 -52.640625 L 1.757812 -52.640625 L 1.757812 -46.386719 L 8.082031 -46.386719 L 8.082031 -45.894531 L 5.550781 -44.347656 L 5.550781 -0.0703125 L 11.808594 -0.0703125 L 11.808594 -46.386719 L 12.722656 -46.386719 L 19.257812 -4.847656 L 27.339844 -4.847656 L 33.664062 -46.386719 Z M 34.578125 -46.386719 "/></g></g></g><g fill="#f6f4f1" fill-opacity="1"><g transform="translate(228.789112, 203.907702)"><g><path d="M 5.832031 -52.640625 L 5.832031 -46.246094 L 11.316406 -46.246094 L 11.316406 -45.753906 L 8.644531 -44.136719 L 2.179688 0 L 8.644531 0 L 10.683594 -13.707031 L 21.648438 -13.707031 L 23.683594 0 L 30.152344 0 L 22.351562 -52.640625 Z M 16.796875 -46.246094 L 20.734375 -20.101562 L 11.597656 -20.101562 L 15.460938 -46.246094 Z M 16.796875 -46.246094 "/></g></g></g><g fill="#f6f4f1" fill-opacity="1"><g transform="translate(261.116656, 203.907702)"><g><path d="M 30.222656 -44.628906 L 22.070312 -52.640625 L 1.757812 -52.640625 L 1.757812 -46.457031 L 8.222656 -46.457031 L 8.222656 -45.964844 L 5.550781 -44.347656 L 5.550781 0 L 11.949219 0 L 11.949219 -17.289062 L 22.140625 -17.289062 L 30.222656 -25.792969 Z M 19.398438 -23.683594 L 11.949219 -23.683594 L 11.949219 -46.246094 L 19.46875 -46.246094 L 23.753906 -41.957031 L 23.753906 -28.324219 Z M 19.398438 -23.683594 "/></g></g></g><g fill="#f6f4f1" fill-opacity="1"><g transform="translate(295.552521, 203.907702)"><g><path d="M 24.738281 0.28125 L 32.75 -52.710938 L 26.285156 -52.710938 L 19.257812 -5.832031 L 17.78125 -5.832031 L 10.894531 -52.710938 L 1.476562 -52.710938 L 1.476562 -46.597656 L 8.011719 -46.597656 L 8.011719 -46.175781 L 5.621094 -44.558594 L 12.230469 0.28125 Z M 24.738281 0.28125 "/></g></g></g><g fill="#f6f4f1" fill-opacity="1"><g transform="translate(330.339766, 203.907702)"><g><path d="M 10.472656 -10.332031 L 10.472656 -17.429688 L 4.148438 -17.429688 L 4.148438 -7.800781 L 11.878906 0.351562 L 21.929688 0.351562 L 29.660156 -7.800781 L 29.660156 -22 L 10.824219 -35.210938 L 10.824219 -42.519531 L 14.6875 -46.667969 L 19.117188 -46.667969 L 23.050781 -42.519531 L 23.050781 -37.039062 L 29.378906 -37.039062 L 29.378906 -45.121094 L 21.859375 -52.992188 L 12.019531 -52.992188 L 4.5 -45.121094 L 4.5 -31.910156 L 23.402344 -18.695312 L 23.402344 -10.332031 L 19.257812 -5.972656 L 14.617188 -5.972656 Z M 10.472656 -10.332031 "/></g></g></g></svg>