<svg xmlns="http://www.w3.org/2000/svg" xmlns:xlink="http://www.w3.org/1999/xlink" width="1920" zoomAndPan="magnify" viewBox="0 0 1440 809.999993" height="1080" preserveAspectRatio="xMidYMid meet" version="1.0"><defs><g/></defs><g fill="#000000" fill-opacity="1"><g transform="translate(279.151193, 447.659177)"><g><path d="M 75.363281 -111.289062 L 55.03125 -131.269531 L 4.382812 -131.269531 L 4.382812 -115.847656 L 20.503906 -115.847656 L 20.503906 -114.621094 L 13.84375 -110.589844 L 13.84375 0 L 29.792969 0 L 29.792969 -43.113281 L 55.207031 -43.113281 L 75.363281 -64.320312 Z M 48.371094 -59.0625 L 29.792969 -59.0625 L 29.792969 -115.320312 L 48.546875 -115.320312 L 59.238281 -104.628906 L 59.238281 -70.628906 Z M 48.371094 -59.0625 "/></g></g></g><g fill="#000000" fill-opacity="1"><g transform="translate(365.025616, 447.659177)"><g><path d="M 4.730469 -130.917969 L 4.730469 -114.96875 L 20.503906 -114.96875 L 20.503906 -113.742188 L 14.019531 -109.886719 L 14.019531 0 L 29.96875 0 L 29.96875 -57.835938 L 59.589844 -57.835938 L 59.589844 0 L 75.535156 0 L 75.535156 -130.917969 L 59.589844 -130.917969 L 59.589844 -73.082031 L 29.96875 -73.082031 L 29.96875 -130.917969 Z M 4.730469 -130.917969 "/></g></g></g><g fill="#000000" fill-opacity="1"><g transform="translate(452.827831, 447.659177)"><g><path d="M 14.546875 -131.269531 L 14.546875 -115.320312 L 28.21875 -115.320312 L 28.21875 -114.09375 L 21.558594 -110.0625 L 5.433594 0 L 21.558594 0 L 26.640625 -34.175781 L 53.980469 -34.175781 L 59.0625 0 L 75.1875 0 L 55.734375 -131.269531 Z M 41.886719 -115.320312 L 51.703125 -50.125 L 28.917969 -50.125 L 38.558594 -115.320312 Z M 41.886719 -115.320312 "/></g></g></g><g fill="#000000" fill-opacity="1"><g transform="translate(533.444622, 447.659177)"><g><path d="M 4.558594 -130.917969 L 4.558594 -115.144531 L 20.679688 -115.144531 L 20.679688 -113.917969 L 14.019531 -109.886719 L 14.019531 0 L 29.617188 0 L 29.617188 -63.09375 L 27.515625 -107.433594 L 28.042969 -107.433594 L 39.960938 -64.496094 L 60.464844 0 L 77.464844 0 L 77.464844 -130.917969 L 61.867188 -130.917969 L 61.867188 -84.824219 L 65.371094 -29.09375 L 64.847656 -29.09375 L 50.476562 -83.949219 L 35.578125 -130.917969 Z M 4.558594 -130.917969 "/></g></g></g><g fill="#000000" fill-opacity="1"><g transform="translate(623.174628, 447.659177)"><g><path d="M 4.90625 0 L 49.25 0 L 49.25 -14.546875 L 35.050781 -14.546875 L 35.050781 -116.898438 L 47.320312 -116.898438 L 47.320312 -131.445312 L 6.308594 -131.445312 L 6.308594 -116.898438 L 25.761719 -116.898438 L 25.761719 -115.671875 L 19.101562 -111.640625 L 19.101562 -14.546875 L 4.90625 -14.546875 Z M 4.90625 0 "/></g></g></g><g fill="#000000" fill-opacity="1"><g transform="translate(677.152836, 447.659177)"><g/></g></g><g fill="#000000" fill-opacity="1"><g transform="translate(709.049029, 447.659177)"><g><path d="M 86.226562 -115.671875 L 86.226562 -0.175781 L 101.824219 -0.175781 L 101.824219 -131.269531 L 70.105469 -131.269531 L 62.566406 -79.21875 L 58.1875 -33.476562 L 57.660156 -33.476562 L 53.105469 -79.917969 L 45.566406 -131.269531 L 4.382812 -131.269531 L 4.382812 -115.671875 L 20.15625 -115.671875 L 20.15625 -114.445312 L 13.84375 -110.589844 L 13.84375 -0.175781 L 29.445312 -0.175781 L 29.445312 -115.671875 L 31.722656 -115.671875 L 48.019531 -12.09375 L 68.175781 -12.09375 L 83.949219 -115.671875 Z M 86.226562 -115.671875 "/></g></g></g><g fill="#000000" fill-opacity="1"><g transform="translate(822.964062, 447.659177)"><g><path d="M 14.546875 -131.269531 L 14.546875 -115.320312 L 28.21875 -115.320312 L 28.21875 -114.09375 L 21.558594 -110.0625 L 5.433594 0 L 21.558594 0 L 26.640625 -34.175781 L 53.980469 -34.175781 L 59.0625 0 L 75.1875 0 L 55.734375 -131.269531 Z M 41.886719 -115.320312 L 51.703125 -50.125 L 28.917969 -50.125 L 38.558594 -115.320312 Z M 41.886719 -115.320312 "/></g></g></g><g fill="#000000" fill-opacity="1"><g transform="translate(903.580864, 447.659177)"><g><path d="M 75.363281 -111.289062 L 55.03125 -131.269531 L 4.382812 -131.269531 L 4.382812 -115.847656 L 20.503906 -115.847656 L 20.503906 -114.621094 L 13.84375 -110.589844 L 13.84375 0 L 29.792969 0 L 29.792969 -43.113281 L 55.207031 -43.113281 L 75.363281 -64.320312 Z M 48.371094 -59.0625 L 29.792969 -59.0625 L 29.792969 -115.320312 L 48.546875 -115.320312 L 59.238281 -104.628906 L 59.238281 -70.628906 Z M 48.371094 -59.0625 "/></g></g></g><g fill="#000000" fill-opacity="1"><g transform="translate(989.455265, 447.659177)"><g><path d="M 61.691406 0.699219 L 81.671875 -131.445312 L 65.546875 -131.445312 L 48.019531 -14.546875 L 44.339844 -14.546875 L 27.164062 -131.445312 L 3.679688 -131.445312 L 3.679688 -116.199219 L 19.980469 -116.199219 L 19.980469 -115.144531 L 14.019531 -111.113281 L 30.496094 0.699219 Z M 61.691406 0.699219 "/></g></g></g><g fill="#000000" fill-opacity="1"><g transform="translate(1076.205963, 447.659177)"><g><path d="M 26.113281 -25.761719 L 26.113281 -43.464844 L 10.339844 -43.464844 L 10.339844 -19.453125 L 29.617188 0.875 L 54.679688 0.875 L 73.960938 -19.453125 L 73.960938 -54.855469 L 26.988281 -87.804688 L 26.988281 -106.03125 L 36.628906 -116.371094 L 47.671875 -116.371094 L 57.484375 -106.03125 L 57.484375 -92.363281 L 73.257812 -92.363281 L 73.257812 -112.515625 L 54.503906 -132.144531 L 29.96875 -132.144531 L 11.214844 -112.515625 L 11.214844 -79.566406 L 58.363281 -46.621094 L 58.363281 -25.761719 L 48.019531 -14.898438 L 36.453125 -14.898438 Z M 26.113281 -25.761719 "/></g></g></g></svg>